<svg xmlns="http://www.w3.org/2000/svg" viewBox="0 0 100 125"><path d="M50 5L11 27.5v45l1.3L50 95l39-22.5v-45L50 5zm0 7.6l15.6 23H34.4L50 12.6zm-8.4 3.2l-12.8 18.9-10-5.8L41.6 15.8zm16.9 0l22.8 13.2-10 5.8-12.8-18.9zm-42.2 17.6l10 5.8-10 20.6V33.5zm67.6 0V59.8l-10-20.6 10-5.8zm-49.8 7.3h31.9L50 68.4 34 40.8zm-4.3 2.9l15.6 27L17.6 68.7l12.2-25zm40.5 0L82.4 68.7l-27.7 2 15.6-27zM24.6 74.4l22.8 1.6v11.5L24.6 74.4zm50.8 0L52.6 87.5V76l22.8-1.6z" font-family="sans-serif" white-space="normal" style="block-progression:tb;font-weight:400;isolation:auto;line-height:normal;mix-blend-mode:normal;text-align:start;text-decoration-color:#000;text-decoration-line:none;text-decoration-style:solid;text-indent:0;text-transform:none"/></svg>