<svg version="1" xmlns="http://www.w3.org/2000/svg" width="360" height="360" viewBox="0 0 270.000000 270.000000"><path d="M123.5 22c-64 14.9-68.4 16-72.2 17.8-2.8 1.3-3.6 2.6-5.7 9.1C38.7 70 12.9 156.5 12.4 160.2c-.7 5.1-5.6-.8 45.8 55.9C78.9 239 96.6 258 97.4 258.3c1.2.5 79.7-17.1 111.1-24.8 12-3 13.1-3.8 15.9-12.4 6.9-20.9 32.7-107.5 33.2-111.3.7-5.1 5.6.8-45.8-55.9-31.8-35.1-39.7-43.3-41.1-42.8-.1 0-21.3 4.9-47.2 10.9zm35.8 7.1c1.1 1.7-4.1 20.4-6.8 24.6-2.8 4.1-5.5 4-36.3-2.3-27.9-5.6-32.3-6.7-31.2-7.7 1-.9 68.6-16.5 70.9-16.4 1.3.1 2.8.9 3.4 1.8zM202 60.7c13.9 15.3 24.7 27.9 24.1 28.1-1.6.5-55.1-22.7-57.8-25.1-3.6-3.2-3.6-6.2-.2-17.6 3.5-11.6 4.3-13.1 7-13.1 1.1 0 11.7 10.9 26.9 27.7zm-98.7.3c35 7.2 37.8 8.1 35.8 11.9-1.3 2.3-64.9 63.4-67.2 64.5-1.3.6-2.4.5-3.1-.2-.7-.7-2.5-14.8-4.5-35.5-4.4-47.2-4.4-47.7 2-47.7 1.6 0 18.2 3.2 37 7zm99.5 31.6c18.5 8 34.3 15 35 15.6.6.6 1.2 2.4 1.2 4 0 2.4-4.7 8.7-24.1 32.5-13.3 16.2-24.8 29.7-25.6 30-.8.3-2-.1-2.8-.8-1.3-1.4-20.5-87.5-20.5-92.1 0-2.2.8-3.2 2.8-3.7.2-.1 15.5 6.5 34 14.5zM53.5 113.8c2.9 31.4 2.7 33.7-1.8 36-1.2.6-6.2 1.8-11.1 2.6-9.6 1.7-12.6 1.1-12.6-2.5 0-1.8 18.9-65.7 20.7-69.9 1.2-2.9 2.2 4.3 4.8 33.8zm99.4-31.1c.9 1.9 21.1 93.2 21.1 95.8 0 4.4-2.9 3.8-47.2-10-23.8-7.4-44.3-13.9-45.5-14.5-1.5-.6-2.3-1.8-2.3-3.3 0-2.4 5.4-7.9 43-44.3 27.9-26.9 28.8-27.6 30.9-23.7zm83.6 57.5c-.3 1.3-5.2 17.4-10.8 35.8l-10.2 33.5-3 .3c-2.7.3-4-.7-10.3-7.1-8.1-8.5-9.1-11.6-4.9-17.4 4.4-6.3 38.2-47.3 39-47.3.4 0 .5 1 .2 2.2zM57.9 164.5c1.6.8 3.2 2.2 3.6 3.2 5.3 13.4 19.5 53.1 19.3 54.1-.4 1.9-47.8-50.6-47.8-52.9 0-2.4 1.4-3.1 8.5-4.5 8.3-1.7 13.1-1.6 16.4.1zm62.8 14.5c23 7.2 42.5 13.4 43.3 13.9.8.4 1.5 1.8 1.5 2.9 0 1.7-6.7 7-29.3 23.2-16.2 11.5-30.1 21-31.1 21-.9 0-2.5-.6-3.4-1.3-.9-.6-6.2-13.6-11.8-28.7-14.8-40.2-15.1-41.1-13.8-42.7.6-.7 1.5-1.3 2-1.3s19.7 5.9 42.6 13zm73.1 32.3c7.6 7.5 8.7 10.1 5 11.7-3.6 1.6-67 16.1-67.6 15.5-.3-.3-.1-.9.4-1.4 2.4-2.3 44.8-32.3 46.7-33.1 4.3-1.8 8 0 15.5 7.3z"/></svg>